<?xml version="1.0" standalone="no"?>
<!DOCTYPE svg PUBLIC "-//W3C//DTD SVG 20010904//EN"
 "http://www.w3.org/TR/2001/REC-SVG-20010904/DTD/svg10.dtd">
<svg version="1.0" xmlns="http://www.w3.org/2000/svg"
 width="512.000000pt" height="512.000000pt" viewBox="0 0 512.000000 512.000000"
 preserveAspectRatio="xMidYMid meet">

<g transform="translate(0.000000,512.000000) scale(0.100000,-0.100000)"
fill="#c3399e" stroke="none">
<path d="M3279 4306 c-132 -47 -196 -204 -133 -329 9 -17 273 -290 587 -604
l572 -573 -2065 -2 -2065 -3 -40 -22 c-177 -95 -177 -331 0 -426 l40 -22 2065
-3 2065 -2 -572 -573 c-314 -314 -578 -587 -588 -605 -55 -111 -6 -260 107
-318 42 -22 124 -28 178 -14 41 11 112 79 844 808 854 853 846 844 846 942 0
98 8 89 -846 942 -688 686 -805 798 -839 807 -53 14 -111 13 -156 -3z"/>
</g>
</svg>
