<svg width="124" height="18" viewBox="0 0 124 18" xmlns="http://www.w3.org/2000/svg">
    <g fill="#8D8D8D" fill-rule="nonzero">
        <path d="m7.155 17.338 1.299-5.81 1.322 5.81h4.133l3.07-11.74h-3.85l-1.157 6.119-1.275-6.12H6.848l-1.251 6.144-1.205-6.31L0 5.907l2.975 11.432h4.18zm16.058.237c3.282 0 5.738-2.395 5.738-6.119 0-3.724-2.409-6.096-5.691-6.096s-5.715 2.396-5.715 6.12 2.385 6.095 5.668 6.095zm.023-3.391c-1.062 0-1.7-1.044-1.7-2.728 0-1.684.638-2.68 1.7-2.68 1.087 0 1.724 1.02 1.724 2.704 0 1.684-.637 2.704-1.724 2.704zm11.477 3.154v-6.356c.92-.712 2.102-1.139 3.755-1.281l-.685-4.34c-1.653.118-2.48 1.162-3.14 2.537l-.379-2.3H30.51v11.74h4.203zm11.689.166 4.369-.593-3.188-5.835 3.211-5.478h-4.51l-2.48 4.743V.213l-4.203.665v16.46h4.203V12.12l2.598 5.384zm7.51-13.116c1.322 0 2.337-.83 2.337-2.182C56.25.83 55.234 0 53.911 0c-1.299 0-2.338.83-2.338 2.206 0 1.352 1.04 2.182 2.338 2.182zm2.1 12.95V5.598H51.81v11.74h4.203zm6.33 0V9.772c.472-.45.897-.712 1.393-.712.685 0 .968.499.968 1.186v7.092h4.203V9.06c0-2.348-1.133-3.7-3.282-3.7-1.393 0-2.409.736-3.448 1.803l-.26-1.565h-3.778v11.74h4.204zm13.861.166c1.015 0 1.582-.095 2.243-.284l-.495-3.44a2.39 2.39 0 0 1-.803.143c-.874 0-1.37-.38-1.37-1.329V8.99h2.621l-.52-3.391h-2.101V1.589l-4.18.664v3.345h-1.464v3.391h1.464v4.27c0 3.249 1.913 4.245 4.605 4.245zm9.28.071c1.795 0 3.377-.474 4.652-1.21l-.377-2.798c-1.3.664-2.574 1.067-3.708 1.067-1.37 0-2.408-.498-2.668-1.968h6.683c.047-.238.07-.688.07-1.139 0-3.463-1.582-6.167-5.265-6.167-3.26 0-5.644 2.325-5.644 6.19 0 4.128 2.55 6.025 6.257 6.025zm.709-7.068h-2.857c0-1.66.543-2.561 1.416-2.561.85 0 1.394.854 1.44 2.561zm10.768 7.02c1.322 0 2.456-.307 3.613-.948l-.472-3.368c-.921.498-1.63.735-2.362.735-1.228 0-2.29-.806-2.29-2.49 0-1.637.944-2.443 2.196-2.443.803 0 1.44.213 2.29.712l.567-3.51a7.297 7.297 0 0 0-3.353-.807c-3.235 0-5.927 1.992-5.927 6.19 0 3.724 2.29 5.93 5.738 5.93zm9.517-.189V9.772c.472-.45.897-.712 1.393-.712.685 0 .968.499.968 1.186v7.092h4.203V9.06c0-2.348-1.133-3.7-3.282-3.7-1.346 0-2.29.664-3.282 1.637V.213l-4.204.665v16.46h4.204zM120.81 6.59c1.855 0 3.19-1.327 3.19-3.274 0-1.962-1.307-3.288-3.175-3.288-1.869 0-3.19 1.34-3.19 3.288 0 1.961 1.293 3.274 3.176 3.274zm0-.381c-1.503 0-2.725-1.044-2.725-2.893 0-1.863 1.208-2.907 2.74-2.907 1.503 0 2.725 1.044 2.725 2.907 0 1.849-1.208 2.893-2.74 2.893zm.816-1.157.843-.141-.984-1.426c.408-.155.689-.48.689-1.002 0-.705-.506-1.1-1.335-1.1h-1.237v3.626h.801V3.626h.267l.956 1.426zm-.857-1.99h-.366v-1.03h.38c.379 0 .59.183.59.508 0 .353-.225.522-.604.522z"/>
    </g>
</svg>
