<?xml version="1.0" standalone="no"?>
<!DOCTYPE svg PUBLIC "-//W3C//DTD SVG 20010904//EN"
 "http://www.w3.org/TR/2001/REC-SVG-20010904/DTD/svg10.dtd">
<svg version="1.0" xmlns="http://www.w3.org/2000/svg"
 width="225.000000pt" height="225.000000pt" viewBox="0 0 225.000000 225.000000"
 preserveAspectRatio="xMidYMid meet">

<g transform="translate(0.000000,225.000000) scale(0.100000,-0.100000)"
fill="#fff" stroke="none">
<path d="M12 1948 c-17 -17 -17 -479 0 -496 17 -17 2209 -17 2226 0 17 17 17
479 0 496 -17 17 -2209 17 -2226 0z m2148 -248 l0 -180 -1035 0 -1035 0 0 180
0 180 1035 0 1035 0 0 -180z"/>
<path d="M16 1374 c-24 -23 -24 -475 0 -498 14 -14 128 -16 1109 -16 981 0
1095 2 1109 16 24 23 24 475 0 498 -14 14 -128 16 -1109 16 -981 0 -1095 -2
-1109 -16z m2144 -249 l0 -175 -1035 0 -1035 0 0 175 0 175 1035 0 1035 0 0
-175z"/>
<path d="M12 798 c-17 -17 -17 -479 0 -496 17 -17 2209 -17 2226 0 17 17 17
479 0 496 -17 17 -2209 17 -2226 0z m2148 -248 l0 -180 -1035 0 -1035 0 0 180
0 180 1035 0 1035 0 0 -180z"/>
</g>
</svg>
