<?xml version="1.0" standalone="no"?>
<!DOCTYPE svg PUBLIC "-//W3C//DTD SVG 20010904//EN"
 "http://www.w3.org/TR/2001/REC-SVG-20010904/DTD/svg10.dtd">
<svg version="1.0" xmlns="http://www.w3.org/2000/svg"
 width="512.000000pt" height="512.000000pt" viewBox="0 0 512.000000 512.000000"
 preserveAspectRatio="xMidYMid meet">

<g transform="translate(0.000000,512.000000) scale(0.100000,-0.100000)"
fill="#fff" stroke="none">
<path d="M832 3713 l3 -318 1725 0 1725 0 3 318 2 317 -1730 0 -1730 0 2 -317z"/>
<path d="M830 2500 l0 -320 1730 0 1730 0 0 320 0 320 -1730 0 -1730 0 0 -320z"/>
<path d="M837 1663 c-4 -3 -7 -147 -7 -320 l0 -313 1730 0 1730 0 -2 318 -3
317 -1721 3 c-946 1 -1724 -1 -1727 -5z"/>
</g>
</svg>
