<svg width="171" height="92" viewBox="0 0 171 92" xmlns="http://www.w3.org/2000/svg" xmlns:xlink="http://www.w3.org/1999/xlink">
    <defs>
        <path id="xxemh3khpa" d="M0 0h118v21H0z"/>
    </defs>
    <g fill="none" fill-rule="evenodd" opacity=".422">
        <path d="M0 0h171v92H0z"/>
        <g transform="translate(26 35)">
            <mask id="qkuhk2rhnb" fill="#fff">
                <use xlink:href="#xxemh3khpa"/>
            </mask>
            <path d="M109.898 11.041c0 1.227 1.031 2.237 2.283 2.237s2.283-1.01 2.283-2.237-1.03-2.237-2.283-2.237c-1.252 0-2.283 1.01-2.283 2.237zm4.493 3.897c-.737.938-1.915 1.516-3.094 1.443-2.873 0-5.156-2.309-5.082-5.123v-.217c0-2.814 2.062-5.268 5.082-5.268 1.179 0 2.357.433 3.094 1.3V0h3.61v16.02h-3.61v-1.082zM97.302 7.433c.737-1.082 1.989-1.732 3.241-1.66 2.725 0 3.83 1.66 3.83 4.114v6.134h-3.535v-5.63c0-.865-.295-1.803-1.62-1.803-1.474 0-1.842 1.082-1.842 2.309v5.124h-3.61V6.134h3.61l-.074 1.299zM84.486 6.134v5.268c0 1.227.294 2.165 1.767 2.165 1.474 0 1.768-.866 1.768-2.165V6.134h3.61v5.99c0 3.247-2.358 4.257-5.378 4.257s-5.377-1.01-5.377-4.257v-5.99h3.61zm-13.7 4.907c0 1.227 1.03 2.237 2.283 2.237 1.252 0 2.283-1.01 2.283-2.237s-1.031-2.237-2.283-2.237c-1.253 0-2.284 1.01-2.284 2.237zm8.396 0c0 3.392-2.872 5.268-6.113 5.268-3.241 0-6.114-1.876-6.114-5.268 0-3.391 2.873-5.268 6.114-5.268 3.24 0 6.113 1.949 6.113 5.268zm-17.088-3.32c.663-1.154 1.988-1.876 3.314-1.731h.663v3.392a3.479 3.479 0 0 0-1.547-.361c-1.988 0-2.504 1.299-2.504 2.958v3.97h-3.61V6.133h3.61v1.588h.074zm-14.143 3.32c.074 1.227 1.179 2.165 2.431 2.093 1.179-.072 2.136-1.01 2.136-2.093-.073-1.227-1.178-2.165-2.43-2.093-1.105 0-2.063.939-2.137 2.093zm8.103 4.041c0 4.186-2.136 5.918-5.82 5.918-2.283 0-5.45-1.155-5.745-3.753h4.052c.073.361.368.578.662.722.295.144.664.217 1.032.217 1.989 0 2.283-1.227 2.283-2.815v-.433c-.81.866-1.989 1.371-3.24 1.371-2.726.072-4.936-2.092-5.01-4.762v-.29c0-2.886 2.063-5.34 5.157-5.34 1.178-.072 2.283.434 2.946 1.372h.074V6.134h3.609v8.948zM40.07 9.67c-.295-1.154-1.473-1.804-2.652-1.515a2.3 2.3 0 0 0-1.547 1.515h4.199zm3.315 2.02h-7.587c-.147 1.083.589 2.021 1.694 2.166h.516c.736.072 1.4-.289 1.767-.866h3.462c-.589 2.31-2.799 3.391-5.156 3.391-3.388 0-5.819-1.876-5.819-5.268 0-3.391 2.284-5.34 5.598-5.34 3.536 0 5.525 2.093 5.525 5.485v.433zm-20.11-5.556v5.268c0 1.227.296 2.165 1.769 2.165 1.473 0 1.768-.866 1.768-2.165V6.134h3.609v5.99c0 3.247-2.357 4.257-5.377 4.257-3.02 0-5.377-1.01-5.377-4.257v-5.99h3.609zM13.7 16.021h3.61V0H13.7v16.02zM3.462 11.04c-.074 1.155.81 2.165 2.062 2.237h.221c1.179.072 2.21-.794 2.284-1.948v-.289c.073-1.227-.884-2.165-2.136-2.237h-.148c-1.252-.072-2.21.866-2.283 2.093v.144zM0 0h3.61v7.072c.81-.866 1.914-1.299 3.093-1.299 3.02 0 5.082 2.454 5.082 5.268.148 2.815-2.062 5.124-4.935 5.268h-.147a3.506 3.506 0 0 1-3.02-1.443h-.074v1.155H0V0z" fill="#000" mask="url(#qkuhk2rhnb)"/>
        </g>
    </g>
</svg>
