<svg width="171" height="92" viewBox="0 0 171 92" xmlns="http://www.w3.org/2000/svg" xmlns:xlink="http://www.w3.org/1999/xlink">
    <defs>
        <path id="0bn7wpnkua" d="M0 0h4.86v4.902H0z"/>
        <path id="oq57ox3abc" d="M0 0h8.24v16.358H0z"/>
        <path id="wzh8wpdage" d="M0 0h1.54v1.554H0z"/>
    </defs>
    <g fill="none" fill-rule="evenodd" opacity=".422">
        <path d="M0 0h171v92H0z"/>
        <path d="m39.754 45.58 1.253.724 1.253-.724v-1.44l-1.253-.723-1.253.723v1.44zm1.253 2.422a.773.773 0 0 1-.388-.107l-2.024-1.178a.781.781 0 0 1-.391-.682v-2.353a.78.78 0 0 1 .391-.682l2.024-1.177a.768.768 0 0 1 .78 0L43.422 43c.241.141.39.401.391.682v2.356a.79.79 0 0 1-.391.682l-2.023 1.175a.791.791 0 0 1-.392.107z" fill="#000"/>
        <g transform="translate(29 36.87)">
            <mask id="3vok4aolmb" fill="#fff">
                <use xlink:href="#0bn7wpnkua"/>
            </mask>
            <path d="m1.653 2.66.567.572.777-.209.21-.78-.57-.574-.777.199-.207.792zm.335 2.242a.78.78 0 0 1-.551-.23L.228 3.447a.795.795 0 0 1-.2-.765l.441-1.651A.78.78 0 0 1 1.02.47L2.668.027a.778.778 0 0 1 .754.206l1.21 1.216c.198.199.275.491.2.764l-.448 1.66a.78.78 0 0 1-.551.556l-1.641.446a.73.73 0 0 1-.204.028z" fill="#000" mask="url(#3vok4aolmb)"/>
        </g>
        <g transform="translate(44.165 34)">
            <mask id="x4go4r1ecd" fill="#fff">
                <use xlink:href="#oq57ox3abc"/>
            </mask>
            <path d="M7.456 16.358a.783.783 0 0 1-.78-.786V5.148L.394 1.475A.793.793 0 0 1 .104.397a.78.78 0 0 1 1.07-.292l6.674 3.887c.241.14.39.4.391.682V15.57c0 .436-.35.79-.783.79" fill="#000" mask="url(#x4go4r1ecd)"/>
        </g>
        <path d="M41.007 58a.772.772 0 0 1-.388-.104l-8.143-4.737a.794.794 0 0 1-.29-1.078.78.78 0 0 1 1.07-.292l7.757 4.515 3.445-2.005a.78.78 0 0 1 1.068.296.793.793 0 0 1-.285 1.071l-3.842 2.23a.792.792 0 0 1-.392.104M46.792 39.533a.761.761 0 0 1-.389-.107l-5.396-3.14-5.199 3.026a.78.78 0 0 1-1.08-.242.793.793 0 0 1 .3-1.125l5.59-3.253a.769.769 0 0 1 .78 0l5.785 3.366a.793.793 0 0 1 .29 1.078.782.782 0 0 1-.681.397" fill="#000"/>
        <path d="M41.007 55.12a.772.772 0 0 1-.388-.104l-8.143-4.737a.781.781 0 0 1-.392-.682v-6.398c0-.436.35-.79.783-.79.433 0 .783.354.783.79v5.937l7.357 4.285 7.36-4.285v-3.998c0-.436.351-.789.784-.788.432 0 .781.353.782.788v4.456a.79.79 0 0 1-.392.682L41.4 55.013a.793.793 0 0 1-.392.107" fill="#000"/>
        <path d="m36.121 47.7 4.886 2.841 4.889-2.842v-5.684l-4.89-2.842-4.885 2.842V47.7zm4.886 4.543a.769.769 0 0 1-.388-.104l-5.669-3.297a.797.797 0 0 1-.392-.685v-6.603c.001-.282.15-.543.392-.685l5.669-3.3a.78.78 0 0 1 .78 0l5.668 3.3c.242.142.39.403.392.685v6.6a.798.798 0 0 1-.392.688L41.4 52.14a.788.788 0 0 1-.392.104zM60.469 43.348a.657.657 0 0 0-.655.66v5.728c.03.342.314.605.655.603h.062a.67.67 0 0 0 .595-.631v-5.684a.66.66 0 0 0-.645-.676h-.012zM65.871 43.032a3.424 3.424 0 0 0-2.105.632.659.659 0 0 0-.717-.59.667.667 0 0 0-.595.63v6.032a.654.654 0 0 0 1.16.36.668.668 0 0 0 .15-.388v-3.65c0-.705.648-1.7 2.094-1.7 1.137 0 1.347 1.263 1.385 1.58v3.798c.03.342.314.604.654.603h.063a.67.67 0 0 0 .595-.631v-3.853c-.066-.972-.72-2.82-2.684-2.823M110.08 43.032a3.403 3.403 0 0 0-2.104.632.659.659 0 0 0-.717-.59.667.667 0 0 0-.595.63v6.032c.03.34.312.603.651.603h.066a.67.67 0 0 0 .595-.631v-3.65c0-.705.648-1.7 2.095-1.7 1.14 0 1.347 1.263 1.382 1.58v3.801c.032.363.35.63.71.598l.007-.001a.673.673 0 0 0 .595-.632v-3.846c-.066-.975-.717-2.823-2.684-2.826M73.297 48.549a.656.656 0 0 0-.583.072c-.658.395-1.274.54-1.566.367a.275.275 0 0 1-.134-.26v-4.063h2.076a.662.662 0 0 0 .598-.719.66.66 0 0 0-.626-.605h-2.048v-1.528a.659.659 0 0 0-1.161-.362.665.665 0 0 0-.152.394v6.874a1.581 1.581 0 0 0 .802 1.421c.288.16.611.242.94.24h.043a3.874 3.874 0 0 0 1.908-.616.666.666 0 0 0-.085-1.215h-.012zM75.796 45.928a1.806 1.806 0 0 1 1.29-1.305c.304-.1.62-.154.94-.16h.04c.28-.001.554.072.796.21.227.153.418.354.56.588l-3.626.667zm3.758-2.366c-.783-.473-1.75-.536-2.868-.186-1.548.483-2.39 1.797-2.262 3.515.11 1.411.94 3.019 2.305 3.218.337.053.677.08 1.018.079h.06a5.36 5.36 0 0 0 2.59-.67.666.666 0 0 0 .257-.9.655.655 0 0 0-.887-.262 4.416 4.416 0 0 1-2.853.442c-.407-.06-.911-.67-1.112-1.522l4.67-.84a.663.663 0 0 0 .517-.79 3.339 3.339 0 0 0-1.435-2.084zM100.203 45.928a1.81 1.81 0 0 1 1.29-1.295c.304-.1.62-.155.94-.161h.04c.28 0 .553.072.796.211.235.15.434.351.582.588l-3.648.657zm3.774-2.366c-.79-.473-1.754-.536-2.876-.186-1.543.483-2.389 1.797-2.258 3.515.11 1.411.956 3.019 2.306 3.218.336.053.677.08 1.017.079h.054a5.39 5.39 0 0 0 2.621-.686c.304-.2.39-.611.19-.918a.654.654 0 0 0-.848-.228 4.42 4.42 0 0 1-2.818.442c-.408-.06-.915-.67-1.112-1.522l4.65-.84a.657.657 0 0 0 .514-.79 3.341 3.341 0 0 0-1.44-2.084zM82.78 38.422a.657.657 0 0 0-.655.66v10.654c.016.176.1.339.235.452a.666.666 0 0 0 .42.151h.063a.67.67 0 0 0 .595-.631V39.053a.66.66 0 0 0-.658-.631M85.737 38.422a.66.66 0 0 0-.658.66v10.654c.03.34.312.603.651.603h.066a.67.67 0 0 0 .595-.631V39.069a.66.66 0 0 0-.654-.647M60.469 41.008a.774.774 0 0 0-.77.777c0 .429.344.777.77.777.425 0 .77-.348.77-.777a.774.774 0 0 0-.77-.777M122.107 43.348a.664.664 0 0 0-.658.66v5.728c.03.342.314.605.655.603h.063a.67.67 0 0 0 .595-.631v-5.684a.66.66 0 0 0-.645-.676h-.01zM122.1 41.008a.774.774 0 0 0-.766.78.773.773 0 0 0 .773.773.774.774 0 0 0 .768-.776.774.774 0 0 0-.77-.777h-.004zM142.233 43.348a.66.66 0 0 0-.658.66v5.728c.032.34.315.601.655.603h.062a.668.668 0 0 0 .595-.631v-5.684a.66.66 0 0 0-.645-.676h-.01z" fill="#000"/>
        <g transform="translate(141.46 41.008)">
            <mask id="df5cwmeqxf" fill="#fff">
                <use xlink:href="#wzh8wpdage"/>
            </mask>
            <path d="M.77 0A.774.774 0 0 0 0 .777c0 .429.345.777.77.777.426 0 .77-.348.77-.777A.774.774 0 0 0 .77 0" fill="#000" mask="url(#df5cwmeqxf)"/>
        </g>
        <path d="M88.85 43.348a.664.664 0 0 0-.658.66v5.728c.03.342.314.605.655.603h.062a.67.67 0 0 0 .595-.631v-5.684a.66.66 0 0 0-.645-.676h-.01zM88.847 41.008a.774.774 0 0 0-.77.777c0 .429.344.777.77.777.425 0 .77-.348.77-.777a.774.774 0 0 0-.77-.777M119.342 48.287a.584.584 0 0 0-.072.05h-.02c-.466.316-1.668.97-2.774.543-.626-.24-1.146-1.023-1.253-1.872a2.148 2.148 0 0 1 .887-2.09c1.6-1.15 3.053.249 3.056.249l.054.053a.648.648 0 0 0 .482.146.642.642 0 0 0 .442-.24.674.674 0 0 0-.038-.884c-.786-.752-2.797-1.804-4.764-.395a3.454 3.454 0 0 0-1.428 3.34c.172 1.34 1.012 2.527 2.09 2.931.4.153.824.23 1.252.227h.016a5.117 5.117 0 0 0 2.752-.931.67.67 0 0 0 .23-.91.658.658 0 0 0-.91-.22l-.002.003zM128.355 48.324a2.857 2.857 0 0 1-1.757.72c-.423 0-.98-.116-.98-1.06 0-.285.12-1.21 1.638-1.21.381-.016.76.07 1.1.246v1.304zm.401-4.8c-.824-.549-2.042-.467-3.724.256a.665.665 0 0 0-.37.825l.02.047c.142.334.525.49.858.35 1.616-.691 2.273-.53 2.52-.369.248.161.314.316.314.913v.072a3.797 3.797 0 0 0-1.1-.154c-1.02 0-2.95.53-2.95 2.526 0 1.099.602 2.384 2.309 2.384a3.895 3.895 0 0 0 1.754-.477.656.656 0 0 0 1.274-.193v-4.162c.007-.9-.316-1.616-.905-2.017zM138.69 48.324a2.857 2.857 0 0 1-1.756.72c-.423 0-.98-.116-.98-1.06 0-.285.118-1.21 1.637-1.21.382-.016.76.07 1.1.246v1.304zm.401-4.8c-.823-.549-2.042-.467-3.723.256a.665.665 0 0 0-.37.825l.019.047c.142.334.525.49.858.35 1.616-.691 2.274-.53 2.521-.369.248.161.313.316.313.913v.072a3.797 3.797 0 0 0-1.1-.154c-1.02 0-2.95.53-2.95 2.526 0 1.099.602 2.384 2.31 2.384a3.893 3.893 0 0 0 1.753-.477.656.656 0 0 0 1.274-.193v-4.162c.007-.9-.316-1.616-.905-2.017zM132.239 48.467a.9.9 0 0 0-.892.906.899.899 0 0 0 .898.9.9.9 0 0 0 .893-.907v-.015a.902.902 0 0 0-.902-.884h.003zM95.508 48.46a2.069 2.069 0 0 1-1.174.49c-.652.072-1.3-.16-1.76-.632a2.223 2.223 0 0 1 .018-3.126 2.183 2.183 0 0 1 1.532-.638c.647-.01 1.264.28 1.672.786.29.337.467.759.504 1.204a2.168 2.168 0 0 1-.792 1.916zm1.5-5.428a.66.66 0 0 0-.657.66v.335a3.478 3.478 0 0 0-4.698.23 3.561 3.561 0 0 0 0 4.993 3.382 3.382 0 0 0 2.48 1.039c.813.007 1.6-.282 2.218-.815v.631c0 .106-.005.211-.016.316-.06.35-.181.687-.357.995l-.035.054-.028.044c-.166.316-.452.55-.792.65a4.424 4.424 0 0 1-2.819-.451.651.651 0 0 0-.814.233.676.676 0 0 0 .18.934l.02.014a5.388 5.388 0 0 0 2.59.666h.057c.34 0 .68-.027 1.018-.079a2.416 2.416 0 0 0 1.628-1.184c.455-.602.698-1.34.69-2.097v-6.508a.66.66 0 0 0-.662-.66h-.003z" fill="#000"/>
    </g>
</svg>
