<svg width="171" height="92" viewBox="0 0 171 92" xmlns="http://www.w3.org/2000/svg">
    <g fill="none" fill-rule="evenodd" opacity=".422">
        <path d="M0 0h171v92H0z"/>
        <g fill="#000">
            <path d="M114.348 35c.36 0 .652.295.652.659v3.092a.655.655 0 0 1-.652.658h-3.57a.327.327 0 0 0-.326.33v14.603a.655.655 0 0 1-.652.658h-3.061a.655.655 0 0 1-.652-.658V39.739a.327.327 0 0 0-.326-.33h-3.57a.655.655 0 0 1-.652-.658v-3.092c0-.364.292-.659.652-.659h12.157M64.068 51h-2.825c-.17 0-.283-.114-.283-.286v-3.857c0-.171.113-.286.283-.286h2.825c1.188 0 1.98 1.086 1.98 2.2 0 1.143-.764 2.229-1.98 2.229zM60.96 39.286c0-.172.113-.286.283-.286h2.715c.99 0 1.867.886 1.867 1.886 0 1-.877 1.914-1.867 1.914h-2.715c-.17 0-.283-.114-.283-.286v-3.228zm7.41 5.657c-.17-.114-.17-.343 0-.514 1.019-1.029 1.443-2.343 1.443-3.715C69.813 37.6 67.41 35 63.958 35h-5.074c-1.04 0-1.884.852-1.884 1.903v16.194c0 1.05.844 1.903 1.884 1.903h5.074c3.762 0 6.082-2.429 6.082-6.229 0-1.4-.51-2.914-1.67-3.828zM83.65 50.59h-6.381a.328.328 0 0 1-.327-.329v-2.727c0-.182.146-.33.326-.33h6.05c.36 0 .653-.294.653-.658v-3.092a.655.655 0 0 0-.652-.659h-6.05a.327.327 0 0 1-.327-.329V39.74c0-.182.146-.33.327-.33h6.27c.36 0 .652-.294.652-.658v-3.092a.655.655 0 0 0-.652-.659h-8.78l-.437.033c-.96.072-1.745.926-1.745 1.898v16.166c0 1.051.844 1.903 1.884 1.903h9.188c.36 0 .652-.295.652-.659V51.25a.655.655 0 0 0-.652-.658M95.313 47.144H93.01a.328.328 0 0 1-.32-.394L94 40.12a.159.159 0 0 1 .16-.132.16.16 0 0 1 .16.132l1.312 6.629a.328.328 0 0 1-.319.394m6.393 7.027-4.704-17.76a1.887 1.887 0 0 0-1.82-1.41h-2.015c-.852 0-1.598.577-1.82 1.408L86.615 54.17c-.111.419.2.83.63.83h3.176a.653.653 0 0 0 .629-.486l.78-2.89a.44.44 0 0 1 .425-.326h3.732a.44.44 0 0 1 .421.317l.855 2.913c.083.28.337.472.626.472h3.188c.428 0 .74-.41.63-.829"/>
        </g>
    </g>
</svg>
