<svg width="171" height="92" viewBox="0 0 171 92" xmlns="http://www.w3.org/2000/svg" xmlns:xlink="http://www.w3.org/1999/xlink">
    <defs>
        <path id="b85jki06ra" d="M0 0h11.444v22H0z"/>
        <path id="wwtgyl75vc" d="M0 0h15.561v22H0z"/>
    </defs>
    <g fill="none" fill-rule="evenodd" opacity=".422">
        <path d="M0 0h171v92H0z"/>
        <path d="M87.858 52.909c.079 0 .156-.003.235-.003-.08 0-.158.003-.238.003h.003M87.856 52.907h.005-.01.005" fill="#000"/>
        <g transform="translate(36 35)">
            <mask id="rw46l4ah5b" fill="#fff">
                <use xlink:href="#b85jki06ra"/>
            </mask>
            <path d="M7.327 18.042c0-2.185 1.843-3.957 4.117-3.957v-.005c-3.666 0-6.637-2.857-6.637-6.38 0-3.523 2.971-6.38 6.637-6.38v-.008a.67.67 0 0 1-.682-.656.67.67 0 0 1 .682-.656C5.124 0 0 4.925 0 11s5.123 10.999 11.443 11c-2.273-.001-4.116-1.772-4.116-3.958" fill="#000" mask="url(#rw46l4ah5b)"/>
        </g>
        <path d="M47.458 35c6.314.007 11.431 4.929 11.431 11 0 6.058-5.096 10.972-11.392 11 6.297-.027 11.393-4.941 11.393-11 0-6.071-5.117-10.994-11.432-11" fill="#000"/>
        <g transform="translate(43.328 35)">
            <mask id="3pb03k31cd" fill="#fff">
                <use xlink:href="#wwtgyl75vc"/>
            </mask>
            <path d="M15.561 11c0-6.071-5.117-10.993-11.431-11H4.117a.67.67 0 0 0-.682.656.67.67 0 0 0 .682.656v.008c3.667 0 6.639 2.856 6.639 6.38s-2.972 6.38-6.638 6.38h-.001v.005C1.843 14.085 0 15.857 0 18.042 0 20.227 1.842 22 4.116 22h.053c6.297-.028 11.392-4.942 11.392-11" fill="#000" mask="url(#3pb03k31cd)"/>
        </g>
        <path d="M132.394 47.24c.055.092.103.19.144.291l.12.308a3.88 3.88 0 0 1 .27-.604l2.841-5.074c.051-.088.104-.142.159-.162a.748.748 0 0 1 .234-.028H137v8.252h-.996V44.16a6.272 6.272 0 0 1 .023-.541l-2.877 5.16c-.097.172-.234.259-.41.259h-.164c-.176 0-.313-.087-.41-.26l-2.942-5.176a4.949 4.949 0 0 1 .035.558v6.064h-.996v-8.252h.838c.102 0 .18.01.234.028.055.02.108.074.159.162l2.9 5.08zm-14.766 2.096c.347 0 .658-.057.931-.173a1.95 1.95 0 0 0 .695-.483c.19-.208.334-.455.434-.743.1-.288.149-.605.149-.95V41.97h1.13v5.016c0 .476-.076.917-.23 1.324-.155.407-.376.76-.663 1.057-.287.297-.637.53-1.052.7a3.662 3.662 0 0 1-1.394.253c-.516 0-.98-.084-1.395-.253a3.06 3.06 0 0 1-1.055-.7c-.289-.297-.51-.65-.665-1.057a3.707 3.707 0 0 1-.231-1.324V41.97h1.13v5.01c0 .345.05.662.15.95a1.981 1.981 0 0 0 1.131 1.23c.275.117.587.175.935.175zm-11.995.887h1.137v-8.252h-1.137v8.252zm-7.014-8.252v.91h-4.032v2.885h3.446v.91h-3.446v3.547h-1.142v-8.252h5.174zM81.8 45.967h1.19c.332 0 .624-.039.876-.118.252-.079.463-.19.633-.334.17-.144.298-.315.383-.515.086-.2.13-.42.13-.662 0-.492-.166-.862-.496-1.112-.33-.25-.821-.374-1.473-.374H81.8v3.115zm0 .812v3.444h-1.13v-8.252h2.373c.53 0 .99.053 1.377.158.386.106.706.258.958.458s.438.44.56.723c.12.282.18.598.18.947 0 .292-.046.564-.14.818-.093.253-.23.48-.407.682a2.431 2.431 0 0 1-.65.516c-.256.142-.546.25-.87.322.14.08.265.198.374.351l2.45 3.277h-1.008c-.207 0-.36-.079-.457-.236l-2.18-2.949a.63.63 0 0 0-.217-.198.794.794 0 0 0-.351-.06H81.8zm-9.31-.68c0-.506-.071-.96-.212-1.364a2.876 2.876 0 0 0-.598-1.022 2.592 2.592 0 0 0-.937-.642 3.234 3.234 0 0 0-1.23-.225c-.45 0-.858.075-1.225.225-.368.15-.681.364-.94.642-.26.278-.46.619-.601 1.022a4.13 4.13 0 0 0-.211 1.365c0 .507.07.96.21 1.362.141.401.341.74.601 1.02.26.277.573.49.94.638.368.148.776.222 1.225.222.454 0 .864-.074 1.23-.222.368-.147.68-.36.938-.639a2.88 2.88 0 0 0 .598-1.02 4.1 4.1 0 0 0 .211-1.361zm1.165 0c0 .619-.1 1.186-.299 1.703-.199.516-.48.96-.843 1.333-.364.372-.8.661-1.31.867a4.487 4.487 0 0 1-1.69.308c-.618 0-1.18-.103-1.688-.308a3.778 3.778 0 0 1-1.307-.867 3.89 3.89 0 0 1-.844-1.333 4.689 4.689 0 0 1-.299-1.702c0-.618.1-1.186.3-1.702.198-.516.48-.962.843-1.336a3.795 3.795 0 0 1 1.307-.872 4.43 4.43 0 0 1 1.687-.311c.618 0 1.181.103 1.69.31.51.208.947.499 1.31.873.364.374.645.82.844 1.336.2.516.3 1.084.3 1.702z" fill="#000"/>
    </g>
</svg>
