<?xml version="1.0" standalone="no"?>
<!DOCTYPE svg PUBLIC "-//W3C//DTD SVG 20010904//EN"
 "http://www.w3.org/TR/2001/REC-SVG-20010904/DTD/svg10.dtd">
<svg version="1.0" xmlns="http://www.w3.org/2000/svg"
 width="500.000000pt" height="427.000000pt" viewBox="0 0 500.000000 427.000000"
 preserveAspectRatio="xMidYMid meet">

<g transform="translate(0.000000,427.000000) scale(0.100000,-0.100000)"
fill="#8d8d8d" stroke="none">
<path d="M0 2135 l0 -2135 2500 0 2500 0 0 2135 0 2135 -2500 0 -2500 0 0
-2135z m2618 1545 c765 -68 1351 -651 1423 -1415 22 -234 -18 -489 -113 -723
-280 -688 -1030 -1081 -1759 -922 -568 124 -1014 548 -1169 1110 -69 251 -69
558 0 810 171 625 717 1082 1359 1140 126 11 135 11 259 0z"/>
<path d="M2275 3364 c-250 -44 -474 -163 -660 -349 -242 -242 -365 -539 -365
-880 0 -141 18 -257 60 -388 139 -433 519 -763 968 -842 113 -19 325 -19 438
0 251 44 474 162 660 349 248 248 364 530 364 881 0 339 -114 624 -345 864
-186 193 -424 320 -682 366 -109 19 -329 18 -438 -1z m428 -453 c121 -32 204
-76 273 -145 65 -66 95 -118 119 -211 30 -116 15 -245 -43 -363 -29 -59 -145
-185 -182 -197 -14 -4 -19 -12 -16 -22 3 -8 83 -140 176 -294 94 -153 170
-284 170 -289 0 -7 -70 -9 -201 -8 l-201 3 -131 250 -130 250 -94 2 -93 2 -2
-252 -3 -252 -180 0 -180 0 -3 762 -2 763 22 5 c57 13 270 23 438 20 147 -3
201 -7 263 -24z"/>
<path d="M2350 2394 l0 -217 108 5 c91 4 115 9 159 31 76 39 107 89 111 183 5
84 -16 134 -72 172 -49 34 -90 42 -203 42 l-103 0 0 -216z"/>
</g>
</svg>
